<svg width="16" height="15" viewBox="0 0 16 15" fill="none" xmlns="http://www.w3.org/2000/svg">
<path d="M15.4506 5.64823C15.3877 5.44613 15.265 5.27002 15.0999 5.14553C14.9351 5.02103 14.7362 4.95445 14.5327 4.95544H10.2392L8.91519 0.697393C8.83115 0.425555 8.64023 0.203747 8.39022 0.0873137C8.14019 -0.0291046 7.85429 -0.0291046 7.60425 0.0873137C7.35422 0.203732 7.16331 0.425535 7.07929 0.697393L5.7553 4.95544H1.46181C1.18913 4.95623 0.929647 5.07737 0.747247 5.28893C0.565016 5.5003 0.477016 5.78238 0.505152 6.06543C0.533289 6.3483 0.67492 6.60536 0.894922 6.77339L4.36773 9.42086L3.04375 13.6789H3.04394C2.9565 13.95 2.98426 14.247 3.12023 14.4954C3.25638 14.7436 3.48772 14.9195 3.75585 14.9784C4.02419 15.0375 4.30387 14.9741 4.52441 14.8041L7.99722 12.1566L11.47 14.8041C11.6906 14.9741 11.9703 15.0375 12.2386 14.9784C12.5068 14.9195 12.7381 14.7436 12.8742 14.4954C13.0102 14.247 13.0379 13.95 12.9505 13.6789L11.6265 9.42086L15.0993 6.77339H15.0995C15.2659 6.64988 15.39 6.47397 15.4532 6.27127C15.5165 6.06877 15.5155 5.85032 15.4506 5.64823H15.4506Z" fill="#828282"/>
</svg>
