<svg xmlns:xlink="http://www.w3.org/1999/xlink" width="1013" height="237" viewBox="0 0 1013 237" fill="none" xmlns="http://www.w3.org/2000/svg" id="svg483701890_5820">
<mask id="svg483701890_5820_mask0_24_5307" style="mask-type:luminance" maskUnits="userSpaceOnUse" x="16" y="18" width="979" height="204" fill="none">
<path d="M995 18H16V221.542H995V18Z" fill="#FFFFFF"></path>
</mask>
<g mask="url(#svg483701890_5820_mask0_24_5307)" fill="none">
<path d="M207.055 29.4891L171.341 19.7491C158.105 16.2521 143.62 18.0001 131.132 23.7451L49.466 62.9551C29.236 72.1951 16 93.4231 16 115.9V141.125C16 162.353 27.488 182.083 45.969 192.322L85.179 214.3C94.42 219.545 104.16 221.792 113.9 221.792C124.889 221.792 135.878 218.795 145.618 212.552L223.788 161.853C240.77 150.865 250.76 132.384 250.76 112.404V86.4311C250.76 59.4581 232.779 35.9821 207.055 29.4891Z" fill="#FFFFFF"></path>
<path d="M61.953 89.4271C51.713 93.9221 45.22 104.412 45.22 115.9V141.124C45.22 151.364 50.964 161.853 60.205 167.098L99.415 189.075C108.655 194.32 120.643 194.32 129.384 187.826L207.554 137.877C216.295 132.633 221.29 122.893 221.29 113.153V87.1791C221.29 73.9431 212.05 62.4541 199.313 58.9581L163.599 49.7171C156.606 47.9691 149.863 48.4691 143.37 51.4661L61.953 89.4271Z" fill="#FFFD63"></path>
<path d="M946.8 109.906C943.55 109.156 944.8 104.661 946.8 101.414C948.8 97.4181 950.05 93.4231 950.05 88.9271V87.6781C950.05 84.9311 948.05 83.1831 945.55 83.1831H916.58C913.83 83.1831 912.08 85.1811 912.08 87.6781V201.063C912.08 203.81 914.08 205.558 916.58 205.558H946.3C949.05 205.558 950.8 203.56 950.8 201.063V159.355C950.8 129.136 960.04 116.399 990.26 117.148C993 117.148 994.75 115.15 994.75 112.653V85.6801C994.75 82.9331 992.75 81.1851 990.26 81.1851C963.78 81.9341 957.29 90.4261 950.05 106.16C950.05 107.908 948.8 109.906 946.8 109.906Z" fill="#FFFFFF"></path>
<path d="M902.594 138.876C902.594 95.9201 871.626 76.1901 839.908 76.1901C798.451 76.1901 773.976 103.912 773.976 142.123C773.976 179.085 796.952 208.055 840.658 208.055C872.875 208.055 892.105 189.574 898.599 167.846C899.348 165.099 897.35 162.602 894.603 162.602H865.632C863.634 162.602 861.886 163.601 861.137 165.349C856.392 172.841 850.648 177.836 840.158 177.836C826.422 177.836 815.683 169.345 812.437 156.108C811.687 153.361 813.685 150.864 816.432 150.864H898.099C900.097 150.864 901.845 150.614 902.345 146.868C902.345 145.869 902.594 141.623 902.594 138.876ZM840.658 105.91C853.145 105.91 861.886 112.403 865.133 125.14C865.882 127.887 863.884 129.635 861.137 129.635H818.181C815.434 129.635 813.685 126.888 814.185 124.391C817.681 113.402 824.924 105.91 840.658 105.91Z" fill="#FFFFFF"></path>
<path d="M765.485 113.901C768.232 113.901 769.98 111.903 769.98 109.406V87.6781C769.98 84.9311 767.982 83.1821 765.485 83.1821H744.506C741.759 83.1821 741.259 81.1851 741.259 78.6871V50.7161C741.259 47.9681 739.262 46.2201 736.764 46.2201H707.044C704.297 46.2201 702.549 48.2181 702.549 50.7161V78.4371C702.549 81.1851 700.551 82.9331 698.054 82.9331H687.564C684.817 82.9331 683.069 84.9311 683.069 87.4281V109.156C683.069 111.903 685.067 113.651 687.564 113.651H698.054C700.801 113.651 702.549 115.649 702.549 118.147V167.596C702.549 197.815 714.537 205.807 739.511 205.807H767.732C770.48 205.807 772.228 203.809 772.228 201.312V179.584C772.228 176.837 770.23 175.089 767.732 175.089H751.499C741.01 175.089 741.01 174.339 741.01 162.601V118.646C741.01 115.899 742.259 114.151 744.256 114.151H765.485V113.901Z" fill="#FFFFFF"></path>
<path d="M668.584 113.901C671.331 113.901 673.079 111.903 673.079 109.406V87.6781C673.079 84.9311 671.081 83.1821 668.584 83.1821H647.605C644.858 83.1821 644.358 81.1851 644.358 78.6871V50.7161C644.358 47.9681 642.36 46.2201 639.863 46.2201H610.143C607.396 46.2201 605.648 48.2181 605.648 50.7161V78.4371C605.648 81.1851 603.65 82.9331 601.152 82.9331H590.663C587.916 82.9331 586.168 84.9311 586.168 87.4281V109.156C586.168 111.903 588.166 113.651 590.663 113.651H601.152C603.9 113.651 605.648 115.649 605.648 118.147V167.596C605.648 197.815 617.636 205.807 642.61 205.807H670.332C673.079 205.807 674.827 203.809 674.827 201.312V179.584C674.827 176.837 672.829 175.089 670.332 175.089H654.098C643.609 175.089 643.609 174.339 643.609 162.601V118.646C643.609 115.899 644.858 114.151 646.856 114.151H668.584V113.901Z" fill="#FFFFFF"></path>
<path d="M495.261 208.805C516.988 208.805 530.225 191.572 536.718 179.834C537.468 177.836 538.716 175.339 541.963 176.588C545.21 177.836 542.712 182.582 540.714 186.578C538.716 190.573 537.468 194.569 537.468 199.814V201.063C537.468 203.81 539.466 205.558 541.963 205.558H570.933C573.681 205.558 576.178 203.56 576.178 201.063V87.679C576.178 84.931 573.431 83.183 570.933 83.183H541.963C539.216 83.183 537.468 85.181 537.468 87.679V128.637C537.468 157.607 523.732 176.837 508.497 176.837C495.261 176.837 489.267 168.846 489.267 141.124V87.679C489.267 84.931 486.52 83.183 484.022 83.183H455.052C452.305 83.183 450.556 85.181 450.556 87.679V156.358C450.307 191.073 468.038 208.805 495.261 208.805Z" fill="#FFFFFF"></path>
<path d="M348.161 39.4771C348.161 36.7301 346.163 34.9821 343.665 34.9821H313.946C311.198 34.9821 309.45 36.9801 309.45 39.4771V201.062C309.45 203.81 311.448 205.558 313.946 205.558H342.916C345.663 205.558 348.161 203.56 348.161 201.062C348.161 197.816 346.163 194.569 344.165 191.073C342.167 187.077 340.169 183.081 343.416 181.832C346.163 181.083 346.662 183.83 347.411 185.079C355.403 200.313 367.891 209.554 386.871 209.554C421.086 209.554 441.066 180.583 441.066 143.621C441.066 106.659 421.336 77.6881 386.871 77.6881C367.641 77.6881 355.154 87.6781 347.411 102.163C346.662 104.161 344.664 107.408 342.167 105.41C338.92 104.161 342.167 99.4161 344.165 95.4201C346.163 92.1741 348.161 88.9271 348.161 84.9311V39.4771ZM376.632 176.587C358.9 176.587 347.661 160.853 347.661 142.372C347.661 123.891 358.65 107.907 376.632 107.907C395.862 107.907 404.353 123.641 404.353 142.123C404.353 160.604 395.612 176.587 376.632 176.587Z" fill="#FFFFFF"></path>
</g>
</svg>