<svg xmlns="http://www.w3.org/2000/svg" xmlns:xlink="http://www.w3.org/1999/xlink" viewBox="0 0 43 40"><g id="ss4277678645_1"><path d="M 0 40 L 0 0 L 42.848 0 L 42.848 40 Z" fill="transparent"></path><g transform="translate(0 1)" id="ss4277678645_3"><path d="M 0 37 L 0 0 L 42.848 0 L 42.848 37 Z" fill="transparent"></path><path d="M 26.293 7.79 L 16.556 7.79 C 15.479 7.79 14.607 6.918 14.607 5.842 C 14.607 4.768 15.479 3.896 16.556 3.896 L 26.293 3.896 C 27.369 3.896 28.241 4.768 28.241 5.842 C 28.241 6.918 27.369 7.79 26.293 7.79 Z M 0 0 L 0 34.076 C 0 35.681 1.315 36.996 2.921 36.996 L 39.927 36.996 C 41.533 36.996 42.848 35.681 42.848 34.076 L 42.848 0 Z" fill="rgb(238,238,238)"></path><path d="M 21.419 15.574 C 14.888 15.574 9.148 18.956 5.855 24.065 L 5.855 36.992 L 14.877 36.992 L 21.419 25.661 L 37.903 25.661 C 34.84 19.674 28.607 15.574 21.419 15.574 Z" fill="rgb(219,68,55)"></path><path d="M 5.856 24.08 C 4 26.964 2.922 30.396 2.922 34.081 C 2.922 35.074 3.001 36.05 3.153 37.001 L 13.393 37.001 Z" fill="rgb(15,157,88)"></path><path d="M 39.928 34.08 C 39.928 31.052 39.2 28.194 37.91 25.67 L 21.426 25.67 L 27.969 37 L 39.697 37 C 39.849 36.049 39.928 35.073 39.928 34.08 Z" fill="rgb(255,205,64)"></path><path d="M 21.426 25.67 C 16.78 25.67 13.016 29.435 13.016 34.08 C 13.016 35.108 13.2 36.092 13.537 37 L 15.363 37 C 14.935 36.117 14.697 35.126 14.697 34.08 C 14.697 30.363 17.71 27.352 21.426 27.352 C 25.142 27.352 28.156 30.363 28.156 34.08 C 28.156 35.127 27.917 36.117 27.49 37 L 29.315 37 C 29.652 36.09 29.837 35.106 29.837 34.08 C 29.837 29.435 26.07 25.67 21.426 25.67 Z" fill="rgb(241,241,241)"></path><path d="M 21.421 27.35 C 17.705 27.35 14.691 30.36 14.691 34.077 C 14.691 35.124 14.93 36.114 15.358 36.998 L 27.485 36.998 C 27.912 36.114 28.151 35.123 28.151 34.077 C 28.149 30.36 25.137 27.35 21.421 27.35 Z" fill="rgb(66,133,244)"></path><path d="M 0 0 L 0 18.499 L 42.848 18.499 L 42.848 0 Z M 26.293 7.79 L 16.556 7.79 C 15.479 7.79 14.607 6.918 14.607 5.842 C 14.607 4.768 15.479 3.896 16.556 3.896 L 26.295 3.896 C 27.371 3.896 28.243 4.768 28.243 5.842 C 28.241 6.918 27.369 7.79 26.293 7.79 Z" fill="rgb(33,33,33)" opacity="0.05"></path><path d="M 42.848 18.252 L 0 18.252 L 0 18.497 L 42.848 18.497 Z" fill="rgb(33,33,33)" opacity="0.02"></path><path d="M 42.848 18.5 L 0 18.5 L 0 18.744 L 42.848 18.744 Z" fill="rgb(255,255,255)" opacity="0.05"></path><path d="M 0 0 L 0 0.244 L 42.848 0.244 L 42.848 0 Z M 26.293 7.79 L 16.556 7.79 C 15.522 7.79 14.676 6.982 14.615 5.966 C 14.609 6.006 14.607 6.046 14.607 6.087 C 14.607 7.163 15.479 8.033 16.556 8.033 L 26.293 8.033 C 27.369 8.033 28.241 7.163 28.241 6.087 C 28.241 6.046 28.24 6.006 28.234 5.966 C 28.172 6.98 27.329 7.79 26.293 7.79 Z" fill="rgb(33,33,33)" opacity="0.02"></path><path d="M 39.927 36.75 L 2.921 36.75 C 1.315 36.75 0 35.437 0 33.83 L 0 34.074 C 0 35.68 1.315 36.995 2.921 36.995 L 39.927 36.995 C 41.533 36.995 42.848 35.68 42.848 34.074 L 42.848 33.83 C 42.848 35.437 41.533 36.75 39.927 36.75 Z M 16.556 3.893 L 26.293 3.893 C 27.327 3.893 28.172 4.701 28.234 5.718 C 28.236 5.677 28.241 5.637 28.241 5.596 C 28.241 4.52 27.369 3.648 26.293 3.648 L 16.556 3.648 C 15.479 3.648 14.607 4.52 14.607 5.596 C 14.607 5.637 14.609 5.677 14.615 5.718 C 14.676 4.701 15.52 3.893 16.556 3.893 Z" fill="rgb(35,31,32)" opacity="0.1"></path></g></g></svg>