<svg width="180" height="54" fill="none" xmlns="http://www.w3.org/2000/svg" id="svg-1542076698_6047"><g clip-path="url(#svg-1542076698_6047_a)"><mask id="svg-1542076698_6047_b" style="mask-type:luminance" maskUnits="userSpaceOnUse" x="0" y="0" width="47" height="54"><path d="M46.932 0H.18v54h46.752V0Z" fill="#fff"/></mask><g mask="url(#svg-1542076698_6047_b)"><path fill-rule="evenodd" clip-rule="evenodd" d="M6.85 17.35 30.24 3.843 23.57 0 .18 13.507v26.986L23.57 54v-7.714L6.85 36.622V17.35Z" fill="url(#svg-1542076698_6047_c)"/><path d="M23.57 26.986V34.7l16.692-9.636v11.558L23.57 46.258v7.714l23.39-13.506v-26.96l-23.39 13.48Z" fill="#666"/><path fill-rule="evenodd" clip-rule="evenodd" d="M6.852 17.35v19.273l6.698-3.844V21.221l16.691-9.663V3.844L6.851 17.35Z" fill="url(#svg-1542076698_6047_d)"/><path fill-rule="evenodd" clip-rule="evenodd" d="M33.563 28.935v3.844l6.698 3.843V25.064l-6.699 3.871Z" fill="url(#svg-1542076698_6047_e)"/><path d="M16.867 23.143v7.714l6.671 3.843v-7.714l-6.67-3.843Z" fill="#F99B52"/><path fill-rule="evenodd" clip-rule="evenodd" d="m6.852 36.623 16.718 9.663 16.692-9.663-6.699-3.844-9.993 5.793-10.02-5.793-6.698 3.844Z" fill="url(#svg-1542076698_6047_f)"/><path d="M23.57 26.986V34.7l16.692-9.636v11.558L23.57 46.286V54l23.363-13.507V13.507L23.57 26.987Z" fill="url(#svg-1542076698_6047_g)"/><path d="m16.867 23.143 6.671 3.843 23.39-13.507-6.67-3.843-23.39 13.507Z" fill="url(#svg-1542076698_6047_h)"/></g><path d="M70.527 40.505a13.381 13.381 0 0 1-6.781-1.758 12.787 12.787 0 0 1-4.824-4.85 13.778 13.778 0 0 1-1.757-6.921 14.001 14.001 0 0 1 1.73-6.935 12.434 12.434 0 0 1 4.71-4.804 13.26 13.26 0 0 1 6.782-1.757c1.722-.02 3.43.303 5.026.95a11.278 11.278 0 0 1 3.899 2.495 9.49 9.49 0 0 1 2.284 3.55l-4.813 2.311a6.46 6.46 0 0 0-2.39-3.162 6.62 6.62 0 0 0-4.006-1.23 7.702 7.702 0 0 0-4.077 1.098 7.17 7.17 0 0 0-2.745 3.02 9.978 9.978 0 0 0-.95 4.464 9.922 9.922 0 0 0 .985 4.497 7.621 7.621 0 0 0 2.812 3.02 7.882 7.882 0 0 0 4.117 1.097 8.08 8.08 0 0 0 3.374-.702 6.17 6.17 0 0 0 2.532-2.005 5.216 5.216 0 0 0 .947-3.09v-.072h-6.995l-2.542-4.047h14.98v2.249c0 2.718-.585 5.026-1.756 6.923a11.204 11.204 0 0 1-4.577 4.253 13.178 13.178 0 0 1-5.965 1.406Zm19.321-.001c-2.086 0-3.726-.493-4.92-1.477-1.194-.983-1.647-2.342-1.647-4.077 0-1.647.426-2.976 1.549-4.005 1.122-1.03 2.857-1.768 5.13-2.145l5.307-.842v-.527a2.3 2.3 0 0 0-.878-1.829 3.487 3.487 0 0 0-2.32-.736 4.203 4.203 0 0 0-2.496.772 4.258 4.258 0 0 0-1.545 2.04l-4.217-2.004a7.182 7.182 0 0 1 3.113-3.794 10.158 10.158 0 0 1 5.378-1.406 9.84 9.84 0 0 1 4.253.878 6.74 6.74 0 0 1 2.915 2.471 6.363 6.363 0 0 1 1.054 3.619V40.08H95.61v-1.793a7.5 7.5 0 0 1-2.53 1.689 9.166 9.166 0 0 1-3.232.527Zm-1.277-5.73a1.647 1.647 0 0 0 .632 1.373 2.758 2.758 0 0 0 1.688.494 4.224 4.224 0 0 0 3.127-1.197 4.1 4.1 0 0 0 1.23-3.02v-.598l-4.357.774a3.57 3.57 0 0 0-1.757.736 1.875 1.875 0 0 0-.563 1.438Zm12.976-13.879h4.919v2.355a4.418 4.418 0 0 1 2.109-2.073 7.202 7.202 0 0 1 3.267-.703 7.336 7.336 0 0 1 3.445.808 5.554 5.554 0 0 1 2.391 2.108c1.358-1.944 3.338-2.916 5.938-2.916a7.2 7.2 0 0 1 3.657.912 6.51 6.51 0 0 1 2.528 2.567 7.697 7.697 0 0 1 .915 3.794V40.08h-5.271V28.872c0-1.125-.305-2.016-.914-2.67-.61-.656-1.418-.984-2.425-.984a3.193 3.193 0 0 0-2.47.983c-.573.652-.86 1.542-.86 2.671v11.21h-5.271v-11.21c0-1.125-.304-2.016-.914-2.67-.609-.656-1.417-.984-2.424-.984a3.193 3.193 0 0 0-2.471.983c-.583.657-.876 1.548-.878 2.671v11.21h-5.271V20.893Zm30.193 0h4.92v2.355a4.392 4.392 0 0 1 2.108-2.073 7.202 7.202 0 0 1 3.267-.703 7.324 7.324 0 0 1 3.443.808 5.562 5.562 0 0 1 2.399 2.108c1.358-1.944 3.338-2.916 5.938-2.916a7.195 7.195 0 0 1 3.654.912A6.501 6.501 0 0 1 160 23.953a7.708 7.708 0 0 1 .915 3.794V40.08h-5.271V28.872c0-1.125-.305-2.016-.915-2.67a3.078 3.078 0 0 0-2.424-.984 3.183 3.183 0 0 0-2.47.983c-.588.657-.881 1.548-.879 2.671v11.21h-5.271v-11.21c0-1.125-.305-2.016-.914-2.67a3.091 3.091 0 0 0-2.424-.984 3.185 3.185 0 0 0-2.471.983c-.587.657-.88 1.548-.878 2.671v11.21h-5.271l.013-19.188Zm36.809 19.609c-2.085 0-3.725-.493-4.92-1.477-1.195-.985-1.792-2.344-1.79-4.077a5.176 5.176 0 0 1 1.68-4.006c1.148-1.054 2.858-1.768 5.131-2.143l5.301-.843v-.527a2.289 2.289 0 0 0-.875-1.829 3.493 3.493 0 0 0-2.32-.736 4.194 4.194 0 0 0-2.496.772 4.246 4.246 0 0 0-1.545 2.04l-4.217-2.004a7.16 7.16 0 0 1 3.135-3.794 10.16 10.16 0 0 1 5.376-1.406 9.818 9.818 0 0 1 4.252.878 6.73 6.73 0 0 1 2.918 2.471 6.369 6.369 0 0 1 1.052 3.619V40.08h-4.917v-1.793a7.563 7.563 0 0 1-2.531 1.689 9.185 9.185 0 0 1-3.234.527Zm-1.263-5.73a1.644 1.644 0 0 0 .631 1.373 2.746 2.746 0 0 0 1.686.494 4.215 4.215 0 0 0 3.127-1.197 4.1 4.1 0 0 0 1.23-3.02v-.598l-4.357.774a3.595 3.595 0 0 0-1.757.736 1.871 1.871 0 0 0-.56 1.438Z" fill="#000"/></g><defs><linearGradient id="svg-1542076698_6047_c" x1="32.827" y1="-10.932" x2="-12.204" y2="85.11" gradientUnits="userSpaceOnUse"><stop offset=".15" stop-color="#2B0AFF"/><stop offset=".59" stop-color="#E40DF2"/><stop offset=".78" stop-color="#F99B52"/></linearGradient><linearGradient id="svg-1542076698_6047_d" x1="35.51" y1="-5.35" x2="-7.929" y2="46.854" gradientUnits="userSpaceOnUse"><stop stop-color="#F99B52"/><stop offset=".52" stop-color="#FF5B8A"/><stop offset="1" stop-color="#2B0AFF"/></linearGradient><linearGradient id="svg-1542076698_6047_e" x1="41.252" y1="41.654" x2="35.273" y2="24.12" gradientUnits="userSpaceOnUse"><stop stop-color="#F99B52"/><stop offset=".52" stop-color="#FF5B8A"/><stop offset="1" stop-color="#2B0AFF"/></linearGradient><linearGradient id="svg-1542076698_6047_f" x1="6.852" y1="39.533" x2="40.262" y2="39.533" gradientUnits="userSpaceOnUse"><stop stop-color="#F99B52"/><stop offset=".52" stop-color="#FF5B8A"/><stop offset="1" stop-color="#2B0AFF"/></linearGradient><linearGradient id="svg-1542076698_6047_g" x1="44.432" y1="-3.725" x2="29.687" y2="56.449" gradientUnits="userSpaceOnUse"><stop offset=".15" stop-color="#2B0AFF"/><stop offset=".59" stop-color="#E40DF2"/><stop offset=".78" stop-color="#F6846D"/></linearGradient><linearGradient id="svg-1542076698_6047_h" x1="23.03" y1="24.584" x2="72.048" y2="-10.086" gradientUnits="userSpaceOnUse"><stop stop-color="#2B0AFF"/><stop offset=".45" stop-color="#E93ABF"/><stop offset="1" stop-color="#FF6C98"/></linearGradient><clipPath id="svg-1542076698_6047_a"><path fill="#fff" transform="translate(.172)" d="M0 0h179.057v54H0z"/></clipPath></defs></svg>