<svg xmlns:xlink="http://www.w3.org/1999/xlink" width="653" height="197" fill="none" xmlns="http://www.w3.org/2000/svg" id="svg-391764624_6201"><g clip-path="url(#svg-391764624_6201_a)" fill="none"><path fill-rule="evenodd" clip-rule="evenodd" d="M24.3 63.2 109.5 14 85.2 0 0 49.2v98.3l85.2 49.2v-28.1l-60.9-35.2V63.2Z" fill="url(&quot;#svg-391764624_6201_b&quot;)"></path><path d="M85.2 98.3v28.1l60.799-35.1v42.1l-60.8 35.1v28.1l85.2-49.2V49.2l-85.2 49.1Z" fill="#666666"></path><path fill-rule="evenodd" clip-rule="evenodd" d="M24.3 63.2v70.2l24.4-14V77.3l60.801-35.2V14l-85.2 49.2Z" fill="url(&quot;#svg-391764624_6201_c&quot;)"></path><path fill-rule="evenodd" clip-rule="evenodd" d="M121.6 105.4v14l24.4 14V91.3l-24.4 14.1Z" fill="url(&quot;#svg-391764624_6201_d&quot;)"></path><path d="M60.8 84.3v28.1l24.3 14V98.3l-24.3-14Z" fill="#F99B52"></path><path fill-rule="evenodd" clip-rule="evenodd" d="m24.3 133.4 60.9 35.2 60.801-35.2-24.4-14-36.4 21.1-36.5-21.1-24.4 14Z" fill="url(&quot;#svg-391764624_6201_e&quot;)"></path><path d="M85.2 98.3v28.1l60.799-35.1v42.1l-60.8 35.2v28.1l85.1-49.2V49.2l-85.1 49.1Z" fill="url(&quot;#svg-391764624_6201_f&quot;)"></path><path d="m60.8 84.3 24.3 14 85.201-49.2-24.3-14-85.2 49.2Z" fill="url(&quot;#svg-391764624_6201_g&quot;)"></path></g><path d="M256.273 147.536c-9.046 0-17.28-2.133-24.704-6.4-7.424-4.267-13.27-10.155-17.536-17.664-4.267-7.509-6.4-15.915-6.4-25.216 0-9.301 2.09-17.707 6.272-25.216 4.181-7.51 9.898-13.355 17.152-17.536 7.338-4.267 15.573-6.4 24.704-6.4 6.656 0 12.757 1.152 18.304 3.456 5.632 2.219 10.368 5.248 14.208 9.088 3.84 3.84 6.613 8.15 8.32 12.928l-17.536 8.448c-1.707-4.779-4.608-8.619-8.704-11.52-4.096-2.987-8.96-4.48-14.592-4.48-5.547 0-10.496 1.323-14.848 3.968-4.267 2.56-7.595 6.23-9.984 11.008-2.304 4.693-3.456 10.112-3.456 16.256s1.194 11.605 3.584 16.384c2.474 4.693 5.888 8.363 10.24 11.008 4.437 2.645 9.429 3.968 14.976 3.968 4.437 0 8.533-.853 12.288-2.56 3.84-1.707 6.912-4.139 9.216-7.296 2.304-3.243 3.456-6.997 3.456-11.264v-.256h-25.472L246.5 93.52h54.573v8.192c0 9.899-2.134 18.304-6.4 25.216-4.267 6.912-9.814 12.075-16.64 15.488-6.827 3.413-14.08 5.12-21.76 5.12Zm70.375 0c-7.595 0-13.568-1.792-17.92-5.376-4.352-3.584-6.028-8.533-6.028-14.848 0-5.973 1.548-10.837 5.644-14.592 4.181-3.84 10.41-6.443 18.688-7.808l19.328-3.072v-1.92c0-2.645-1.067-4.864-3.2-6.656-2.134-1.792-4.95-2.688-8.448-2.688-3.414 0-6.443.939-9.088 2.816-2.56 1.792-4.438 4.267-5.632 7.424l-15.36-7.296c2.048-5.803 5.845-10.41 11.392-13.824 5.632-3.413 12.16-5.12 19.584-5.12 5.802 0 10.965 1.067 15.488 3.2 4.608 2.133 8.149 5.12 10.624 8.96 2.56 3.84 3.84 8.235 3.84 13.184V146h-17.92v-6.528c-2.731 2.731-5.803 4.779-9.216 6.144-3.414 1.28-7.339 1.92-11.776 1.92Zm-4.608-20.864c0 2.133.768 3.797 2.304 4.992 1.621 1.195 3.669 1.792 6.144 1.792 4.693 0 8.49-1.451 11.392-4.352 2.986-2.987 4.48-6.656 4.48-11.008v-2.176l-15.872 2.816c-2.816.512-4.95 1.408-6.4 2.688-1.366 1.28-2.048 3.029-2.048 5.248Zm47.201-50.56h17.92v8.576c1.706-3.413 4.266-5.93 7.68-7.552 3.413-1.707 7.381-2.56 11.904-2.56 4.608 0 8.789.981 12.544 2.944 3.84 1.877 6.741 4.437 8.704 7.68 4.949-7.083 12.16-10.624 21.632-10.624 5.034 0 9.472 1.11 13.312 3.328 3.925 2.219 6.997 5.333 9.216 9.344 2.219 4.01 3.328 8.619 3.328 13.824V146h-19.2v-40.832c0-4.096-1.11-7.339-3.328-9.728-2.134-2.39-5.078-3.584-8.832-3.584-3.755 0-6.742 1.195-8.96 3.584-2.134 2.39-3.2 5.632-3.2 9.728V146h-19.2v-40.832c0-4.096-1.11-7.339-3.328-9.728-2.134-2.39-5.078-3.584-8.832-3.584-3.755 0-6.742 1.195-8.96 3.584-2.134 2.39-3.2 5.632-3.2 9.728V146h-19.2V76.112Zm109.975 0h17.92v8.576c1.706-3.413 4.266-5.93 7.68-7.552 3.413-1.707 7.381-2.56 11.904-2.56 4.608 0 8.789.981 12.544 2.944 3.84 1.877 6.741 4.437 8.704 7.68 4.949-7.083 12.16-10.624 21.632-10.624 5.034 0 9.472 1.11 13.312 3.328 3.925 2.219 6.997 5.333 9.216 9.344 2.218 4.01 3.328 8.619 3.328 13.824V146h-19.2v-40.832c0-4.096-1.11-7.339-3.328-9.728-2.134-2.39-5.078-3.584-8.832-3.584-3.755 0-6.742 1.195-8.96 3.584-2.134 2.39-3.2 5.632-3.2 9.728V146h-19.2v-40.832c0-4.096-1.11-7.339-3.328-9.728-2.134-2.39-5.078-3.584-8.832-3.584-3.755 0-6.742 1.195-8.96 3.584-2.134 2.39-3.2 5.632-3.2 9.728V146h-19.2V76.112Zm134.107 71.424c-7.595 0-13.568-1.792-17.92-5.376-4.352-3.584-6.528-8.533-6.528-14.848 0-5.973 2.048-10.837 6.144-14.592 4.181-3.84 10.41-6.443 18.688-7.808l19.328-3.072v-1.92c0-2.645-1.067-4.864-3.2-6.656-2.134-1.792-4.95-2.688-8.448-2.688-3.414 0-6.443.939-9.088 2.816-2.56 1.792-4.438 4.267-5.632 7.424l-15.36-7.296c2.048-5.803 5.845-10.41 11.392-13.824 5.632-3.413 12.16-5.12 19.584-5.12 5.802 0 10.965 1.067 15.488 3.2 4.608 2.133 8.149 5.12 10.624 8.96 2.56 3.84 3.84 8.235 3.84 13.184V146h-17.92v-6.528c-2.731 2.731-5.803 4.779-9.216 6.144-3.414 1.28-7.339 1.92-11.776 1.92Zm-4.608-20.864c0 2.133.768 3.797 2.304 4.992 1.621 1.195 3.669 1.792 6.144 1.792 4.693 0 8.49-1.451 11.392-4.352 2.986-2.987 4.48-6.656 4.48-11.008v-2.176l-15.872 2.816c-2.816.512-4.95 1.408-6.4 2.688-1.366 1.28-2.048 3.029-2.048 5.248Z" fill="#FFFFFF"></path><defs><linearGradient id="svg-391764624_6201_b" x1="118.888" y1="-39.84" x2="-45.144" y2="309.997" gradientUnits="userSpaceOnUse"><stop offset=".147" stop-color="#2B0AFF"></stop><stop offset=".586" stop-color="#E40DF2"></stop><stop offset=".779" stop-color="#F99B52"></stop></linearGradient><linearGradient id="svg-391764624_6201_c" x1="128.689" y1="-19.496" x2="-29.536" y2="170.664" gradientUnits="userSpaceOnUse"><stop stop-color="#F99B52"></stop><stop offset=".525" stop-color="#FF5B8A"></stop><stop offset="1" stop-color="#2B0AFF"></stop></linearGradient><linearGradient id="svg-391764624_6201_d" x1="149.622" y1="151.718" x2="127.848" y2="87.848" gradientUnits="userSpaceOnUse"><stop stop-color="#F99B52"></stop><stop offset=".525" stop-color="#FF5B8A"></stop><stop offset="1" stop-color="#2B0AFF"></stop></linearGradient><linearGradient id="svg-391764624_6201_e" x1="24.331" y1="143.981" x2="145.979" y2="143.981" gradientUnits="userSpaceOnUse"><stop stop-color="#F99B52"></stop><stop offset=".525" stop-color="#FF5B8A"></stop><stop offset="1" stop-color="#2B0AFF"></stop></linearGradient><linearGradient id="svg-391764624_6201_f" x1="161.177" y1="-13.58" x2="107.467" y2="205.612" gradientUnits="userSpaceOnUse"><stop offset=".147" stop-color="#2B0AFF"></stop><stop offset=".586" stop-color="#E40DF2"></stop><stop offset=".779" stop-color="#F6846D"></stop></linearGradient><linearGradient id="svg-391764624_6201_g" x1="83.268" y1="89.57" x2="261.815" y2="-36.72" gradientUnits="userSpaceOnUse"><stop stop-color="#2B0AFF"></stop><stop offset=".453" stop-color="#E93ABF"></stop><stop offset="1" stop-color="#FF6C98"></stop></linearGradient><clipPath id="svg-391764624_6201_a"><path fill="#fff" d="M0 0h170.3v196.7H0z"></path></clipPath><linearGradient id="svg-391764624_6201_b" x1="118.888" y1="-39.84" x2="-45.144" y2="309.997" gradientUnits="userSpaceOnUse"><stop offset=".147" stop-color="#2B0AFF"></stop><stop offset=".586" stop-color="#E40DF2"></stop><stop offset=".779" stop-color="#F99B52"></stop></linearGradient><linearGradient id="svg-391764624_6201_c" x1="128.689" y1="-19.496" x2="-29.536" y2="170.664" gradientUnits="userSpaceOnUse"><stop stop-color="#F99B52"></stop><stop offset=".525" stop-color="#FF5B8A"></stop><stop offset="1" stop-color="#2B0AFF"></stop></linearGradient><linearGradient id="svg-391764624_6201_d" x1="149.622" y1="151.718" x2="127.848" y2="87.848" gradientUnits="userSpaceOnUse"><stop stop-color="#F99B52"></stop><stop offset=".525" stop-color="#FF5B8A"></stop><stop offset="1" stop-color="#2B0AFF"></stop></linearGradient><linearGradient id="svg-391764624_6201_e" x1="24.331" y1="143.981" x2="145.979" y2="143.981" gradientUnits="userSpaceOnUse"><stop stop-color="#F99B52"></stop><stop offset=".525" stop-color="#FF5B8A"></stop><stop offset="1" stop-color="#2B0AFF"></stop></linearGradient><linearGradient id="svg-391764624_6201_f" x1="161.177" y1="-13.58" x2="107.467" y2="205.612" gradientUnits="userSpaceOnUse"><stop offset=".147" stop-color="#2B0AFF"></stop><stop offset=".586" stop-color="#E40DF2"></stop><stop offset=".779" stop-color="#F6846D"></stop></linearGradient><linearGradient id="svg-391764624_6201_g" x1="83.268" y1="89.57" x2="261.815" y2="-36.72" gradientUnits="userSpaceOnUse"><stop stop-color="#2B0AFF"></stop><stop offset=".453" stop-color="#E93ABF"></stop><stop offset="1" stop-color="#FF6C98"></stop></linearGradient></defs></svg>