<svg xmlns:xlink="http://www.w3.org/1999/xlink" width="120" height="25" viewBox="0 0 120 25" fill="none" xmlns="http://www.w3.org/2000/svg" id="svg49895752_4036">
<path fill-rule="evenodd" clip-rule="evenodd" d="M15.6499 2.19674C16.3503 0.963826 17.9071 0.540494 19.1274 1.24811C20.3478 1.95572 20.7668 3.52854 20.0664 4.76146L9.8969 22.56C9.1965 23.7929 7.63973 24.2162 6.41939 23.5086C5.19905 22.801 4.78003 21.2282 5.48043 19.9953L15.6499 2.19674Z" fill="#FFFFFF"></path>
<path fill-rule="evenodd" clip-rule="evenodd" d="M5.47732 2.18747C6.18384 0.954554 7.74673 0.534311 8.96401 1.24811C10.1843 1.9619 10.6003 3.53781 9.89379 4.77073L4.80751 13.67C4.101 14.9029 2.54117 15.3231 1.32083 14.6094C0.100486 13.8956 -0.315469 12.3197 0.391043 11.0867L5.47732 2.18747Z" fill="#FFFFFF"></path>
<path fill-rule="evenodd" clip-rule="evenodd" d="M20.7332 11.096C21.4336 9.86307 22.9903 9.43974 24.2107 10.1474C25.431 10.855 25.85 12.4278 25.1496 13.6607L20.0634 22.56C19.363 23.7929 17.8062 24.2162 16.5858 23.5086C15.3655 22.801 14.9465 21.2282 15.6469 19.9952L20.7332 11.096Z" fill="#FFFFFF"></path>
<path fill-rule="evenodd" clip-rule="evenodd" d="M92.7355 3.09961V19.9295H95.9986V13.0169C95.9986 11.4415 97.2687 10.1583 98.8858 10.1583C100.503 10.1583 101.773 11.4123 101.773 13.0169V19.9295H105.181V12.6371C105.181 9.80776 102.872 7.53351 100.014 7.53351C98.57 7.53351 97.1842 8.14702 96.2032 9.16729L96.0008 9.37179V3.09961H92.7355Z" fill="#FFFFFF" class=""></path>
<path fill-rule="evenodd" clip-rule="evenodd" d="M53.4065 7.79644H56.6697V9.47066L56.7564 9.36954C56.8232 9.28414 56.8921 9.20324 56.9633 9.12233C57.7841 8.30207 58.9118 7.79419 60.1508 7.79419H60.8559V10.7314H59.9328C58.1378 10.7314 56.6697 12.2146 56.6697 14.0282V19.9295H53.4065V7.79644Z" fill="#FFFFFF"></path>
<path fill-rule="evenodd" clip-rule="evenodd" d="M109.036 7.79644L112.628 16.0732L116.22 7.79644H119.619L113.996 20.7498C113.059 22.905 111.069 24.2196 108.737 24.2196H106.785V21.0734H108.737C109.656 21.0734 110.419 20.6667 110.902 19.9363L105.632 7.79644H109.036Z" fill="#FFFFFF" class=""></path>
<path fill-rule="evenodd" clip-rule="evenodd" d="M43.8507 14.2147H48.0369L47.9791 14.3608C47.8056 14.8282 47.5164 15.2642 47.1427 15.5855C46.422 16.2844 45.41 16.6935 44.4001 16.8103C44.1688 16.8395 43.9664 16.8395 43.735 16.8395C42.3782 16.8395 41.0791 16.3137 40.0982 15.3518C39.1172 14.39 38.5967 13.136 38.5967 11.7652C38.5967 10.3943 39.1172 9.14032 40.0982 8.17848C41.0791 7.21664 42.3492 6.69078 43.735 6.69078C44.4001 6.69078 45.063 6.83685 45.6991 7.07057C46.3064 7.30429 46.8825 7.71329 47.3741 8.17848L49.7408 5.8458C48.96 5.08622 48.008 4.44574 46.9981 4.03673C45.9594 3.62773 44.8895 3.39401 43.7639 3.39401C41.5129 3.39401 39.3753 4.2682 37.7871 5.84355C36.1989 7.4189 35.3047 9.52011 35.3047 11.7359C35.3047 13.9518 36.1989 16.053 37.7871 17.6283C39.3753 19.2037 41.5107 20.0779 43.7639 20.0779C44.1398 20.0779 44.4846 20.0487 44.8605 20.0194C46.5933 19.7857 48.2393 19.0868 49.5384 17.889C50.8374 16.635 51.5892 14.972 51.5892 13.1922V12.3764C51.5892 11.5606 50.9241 10.8887 50.0878 10.8887H43.8507V14.2147Z" fill="#FFFFFF" class=""></path>
<path fill-rule="evenodd" clip-rule="evenodd" d="M80.7194 24.2196H77.4563V7.79644H80.7194V9.05942C81.7982 8.14477 83.1885 7.59194 84.7077 7.59194C88.1355 7.59194 90.9159 10.3988 90.9159 13.8641C90.9159 17.3294 88.1377 20.1363 84.7077 20.1363C83.1885 20.1363 81.7982 19.5857 80.7194 18.6688V24.2196ZM80.6038 13.8641C80.6038 15.7608 82.192 17.3362 84.1272 17.3362C86.0623 17.3362 87.6483 15.79 87.6483 13.8641C87.6483 11.9382 86.0601 10.3921 84.1272 10.3921C82.1942 10.3921 80.6038 11.9674 80.6038 13.8641Z" fill="#FFFFFF" class=""></path>
<path fill-rule="evenodd" clip-rule="evenodd" d="M67.9205 7.59194C64.4928 7.59194 61.7123 10.3988 61.7123 13.8641C61.7123 17.3294 64.4906 20.1363 67.9205 20.1363C69.4398 20.1363 70.83 19.5857 71.9088 18.6688V19.9318H75.1719V7.79644H71.9088V9.05942C70.83 8.14477 69.4398 7.59194 67.9205 7.59194ZM72.0245 13.8641C72.0245 15.7608 70.4363 17.3362 68.5011 17.3362C66.5659 17.3362 64.9777 15.7608 64.9777 13.8641C64.9777 11.9674 66.5659 10.3921 68.5011 10.3921C70.4363 10.3921 72.0245 11.9674 72.0245 13.8641Z" fill="#FFFFFF" class=""></path>
</svg>