<svg data-name="Layer 1" xmlns="http://www.w3.org/2000/svg" viewBox="0 0 397.87 100" id="svg700829670_1923"><path d="M74.75 45.59A63.57 63.57 0 0 0 59.37 34l9.35-30.52L57.62.11l-9.06 29.68a42.37 42.37 0 0 0-14.66-1.31l3.88 11.44a31.55 31.55 0 0 1 7.43 1l-6.46 21.2-21-62-11 3.71 10.09 29.76A64.47 64.47 0 0 0 .6 45.8l-.6.6 8.26 8.15.6-.6a53.49 53.49 0 0 1 11.75-9.32l8.82 26.12a9.85 9.85 0 0 0 9.38 6.74H39a9.85 9.85 0 0 0 9.32-7.09l7.63-25a52.86 52.86 0 0 1 10.61 8.35l.6.59 8.23-8.2Z" style="fill:#28bbc7"/><path d="M178.76 46.67c0-8.6-3.16-14-9.69-14-7.51 0-12.63 6.1-12.95 17v27.58h-12V46.67c0-8.6-3.16-14-9.69-14-7.84 0-13.06 6.4-13.06 17.85v26.73h-12V28.82a6 6 0 0 1 12 0v1.42a17.41 17.41 0 0 1 15.46-8.49c8.16 0 13.93 3.92 16.87 10.77 3.16-7 10.14-10.77 17.42-10.77 12.3 0 19.6 9 19.6 23v32.5h-12ZM199 28.82V100h11.9V69.94c3 4.35 9.68 8.35 17.53 8.35 14.91 0 26.24-12.74 26.24-28.3s-11.33-28.3-26.24-28.3c-7.85 0-14.48 4-17.53 8.38v-1.28a6 6 0 0 0-11.93 0Zm27.3 3.83c9.58 0 16.22 7.62 16.23 17.4s-6.62 17.44-16.23 17.44S210 59.86 210 50.07s6.61-17.42 16.27-17.42ZM99.33 1.86a6.38 6.38 0 0 0-10.88 4.49v70.9h12.73V6.38a6.44 6.44 0 0 0-1.85-4.52Zm235.16 0a6.36 6.36 0 0 0-6.93-1.38 6.37 6.37 0 0 0-3.94 5.87v70.9h12.74V6.38a6.4 6.4 0 0 0-1.87-4.52Zm61.61 22.75a5.94 5.94 0 0 0-6.54-1.33 6 6 0 0 0-3.68 5.57v1.28c-3-4.36-9.54-8.38-17.4-8.38-14.91 0-26.24 12.73-26.24 28.3s11.33 28.33 26.24 28.3c7.82 0 14.37-4 17.42-8.39v7.32h12V28.85a5.95 5.95 0 0 0-1.77-4.24Zm-25.46 42.88c-9.6 0-16.24-7.65-16.24-17.44s6.66-17.41 16.23-17.42 16.21 7.62 16.21 17.42-6.61 17.44-16.2 17.44Zm-57.02-42.91a6 6 0 0 0-10.22 4.24v1.28c-3-4.33-9.57-8.35-17.42-8.35-14.91 0-26.24 12.73-26.24 28.3s11.33 28.33 26.26 28.3c7.82 0 14.38-4 17.42-8.39v7.29h12V28.82a5.87 5.87 0 0 0-.46-2.3 6 6 0 0 0-1.34-1.94Zm-25.47 42.94c-9.57 0-16.22-7.64-16.22-17.44s6.65-17.42 16.22-17.42 16.23 7.62 16.23 17.42-6.65 17.41-16.23 17.41Z" style="fill:#141414;fill-rule:evenodd"/></svg>