<svg xmlns:xlink="http://www.w3.org/1999/xlink" width="653" height="197" viewBox="0 0 140 72" fill="none" xmlns="http://www.w3.org/2000/svg" id="svg-1769014387_3561">
<path d="M10.8447 41.5492L4.61438 35.3422C3.56433 34.2922 1.83758 34.2922 0.787536 35.3422C-0.262512 36.3923 -0.262512 38.119 0.787536 39.1691L8.93124 47.2894C9.98129 48.3395 11.708 48.3395 12.7581 47.2894L20.4118 39.6358L16.5616 35.8089L10.8447 41.5492Z" fill="#1AAD94"></path>
<path d="M34.251 29.6039L22.3038 41.5512L10.3566 29.6039C9.30652 28.5539 7.57977 28.5539 6.52972 29.6039C5.47968 30.654 5.47968 32.3807 6.52972 33.4308L20.3904 47.2914C21.4404 48.3415 23.1672 48.3415 24.2172 47.2914L38.0778 33.4308C39.1279 32.3807 39.1279 30.654 38.0778 29.6039C37.0278 28.5539 35.301 28.5539 34.251 29.6039Z" fill="#F2AE20"></path>
<path d="M43.82 39.1691L35.6996 47.2895C34.6496 48.3395 32.9229 48.3395 31.8728 47.2895L12.2719 27.6886C11.2219 26.6386 11.2219 24.9118 12.2719 23.8618C13.322 22.8117 15.0487 22.8117 16.0988 23.8618L33.7862 41.5492L39.9932 35.3423C41.0432 34.2922 42.77 34.2922 43.82 35.3423C44.8701 36.3923 44.8701 38.1191 43.82 39.1691Z" fill="#E76450"></path>
<path d="M32.3366 23.8618C31.2865 22.8117 29.5598 22.8117 28.5097 23.8618L16.5625 35.809L20.3893 39.6358L32.3366 27.6886C33.3866 26.6386 33.3866 24.9118 32.3366 23.8618Z" fill="#1AAD94"></path>
<path d="M58.5869 25.73H55.2734V45.2842H67.454V42.344H58.5869V25.73ZM74.641 31.6102C76.6711 31.6102 78.0245 32.4269 78.7712 33.4536L78.9345 31.8902H81.8047V45.2842H78.9345L78.7712 43.7208C78.0245 44.7242 76.6711 45.5642 74.641 45.5642C71.0008 45.5642 68.5274 42.6241 68.5274 38.5872C68.5274 34.527 71.0008 31.6102 74.641 31.6102ZM75.341 34.4337C73.2643 34.4337 71.7709 36.0671 71.7709 38.5872C71.7709 41.1073 73.2643 42.7407 75.341 42.7407C76.9278 42.7407 77.8845 41.9007 78.6078 40.7573V36.4404C77.8845 35.2737 76.9278 34.4337 75.341 34.4337ZM89.8317 27.3867H86.6349V31.8902H84.1148V34.597H86.6349V40.5473C86.6349 43.7908 88.5716 45.5409 91.6284 45.5409C92.9585 45.5409 93.9385 45.1675 94.6152 44.7475L93.7752 42.2507C93.3785 42.4841 92.7952 42.6707 91.9318 42.6707C90.6717 42.6707 89.8317 41.8774 89.8317 40.524V34.597H93.8685V31.8902H89.8317V27.3867ZM100.822 27.3867H97.6254V31.8902H95.1053V34.597H97.6254V40.5473C97.6254 43.7908 99.5621 45.5409 102.619 45.5409C103.949 45.5409 104.929 45.1675 105.606 44.7475L104.766 42.2507C104.369 42.4841 103.786 42.6707 102.922 42.6707C101.662 42.6707 100.822 41.8774 100.822 40.524V34.597H104.859V31.8902H100.822V27.3867ZM110.949 31.8669H107.753V45.2608H110.949V31.8669ZM109.363 25.6133C108.243 25.6133 107.402 26.43 107.402 27.5734C107.402 28.7168 108.243 29.5335 109.363 29.5335C110.506 29.5335 111.346 28.7168 111.346 27.5734C111.346 26.43 110.506 25.6133 109.363 25.6133ZM120.586 31.6102C116.456 31.6102 113.726 34.527 113.726 38.5872C113.726 42.6007 116.503 45.5642 120.61 45.5642C123.037 45.5642 124.857 44.4675 126.07 42.6241L123.783 40.8506C123.153 41.924 122.103 42.7874 120.656 42.7874C118.3 42.7874 116.993 40.944 116.993 38.6105C116.993 36.2538 118.253 34.4337 120.633 34.4337C122.126 34.4337 123.107 35.2737 123.713 36.3471L126.023 34.597C124.81 32.7069 123.037 31.6102 120.586 31.6102ZM133.864 31.6102C137.994 31.6102 140.001 34.6904 140.001 38.4472V39.5673H130.527C130.597 41.6907 131.88 42.8574 134.12 42.8574C135.684 42.8574 136.827 42.1574 137.434 41.3173L139.651 43.1141C138.321 44.7008 136.57 45.5409 134.097 45.5409C129.944 45.5409 127.283 42.6241 127.283 38.6105C127.307 34.5504 130.014 31.6102 133.864 31.6102ZM133.817 34.1537C131.927 34.1537 130.644 35.4137 130.55 37.2572H136.874C136.804 35.4371 135.73 34.1537 133.817 34.1537Z" fill="#FFFFFF"></path>
</svg>