<svg width="112" height="20" fill="none" xmlns="http://www.w3.org/2000/svg" id="svg1060057715_2506"><g clip-path="url(#svg1060057715_2506_a)" fill-rule="evenodd" clip-rule="evenodd"><path d="M8.62 14.78 3.673 9.81a2.145 2.145 0 0 0-3.044 0 2.17 2.17 0 0 0 0 3.058l6.468 6.498c.84.844 2.203.844 3.043 0l6.087-6.117-3.043-3.057L8.62 14.78Z" fill="#16B8A2"/><path d="m27.258 5.225-9.51 9.555-9.512-9.556a2.145 2.145 0 0 0-3.043 0 2.17 2.17 0 0 0 0 3.058l11.033 11.085c.84.844 2.203.844 3.043 0L30.301 8.283a2.17 2.17 0 0 0 0-3.058 2.145 2.145 0 0 0-3.043 0Z" fill="#FFB41F"/><path d="m34.871 12.87-6.466 6.497a2.145 2.145 0 0 1-3.043 0L9.763 3.695a2.17 2.17 0 0 1 0-3.058 2.145 2.145 0 0 1 3.044 0L26.883 14.78l4.945-4.968a2.145 2.145 0 0 1 3.043 0 2.17 2.17 0 0 1 0 3.058Z" fill="#F56358"/><path d="M25.741.638a2.145 2.145 0 0 0-3.043 0l-9.51 9.555 3.043 3.058 9.51-9.555a2.17 2.17 0 0 0 0-3.058Z" fill="#16B8A2"/><path d="M46.667 2.085H44v15.701h9.772v-2.37h-7.105V2.085Zm12.877 4.721c1.621 0 2.71.663 3.306 1.474l.129-1.26h2.304v10.766h-2.304l-.129-1.26c-.597.812-1.685 1.474-3.306 1.474-2.923 0-4.908-2.371-4.908-5.597 0-3.247 1.985-5.597 4.907-5.597Zm.554 2.265c-1.664 0-2.859 1.303-2.859 3.332 0 2.03 1.195 3.333 2.86 3.333 1.28 0 2.048-.684 2.623-1.603v-3.46c-.575-.919-1.344-1.602-2.624-1.602Zm11.64-5.661h-2.56v3.61H67.15v2.179h2.027v4.785c0 2.606 1.558 4.016 4.011 4.016 1.067 0 1.856-.3 2.39-.64l-.683-2.009c-.32.192-.79.342-1.472.342-1.003 0-1.686-.64-1.686-1.73V9.199h3.243V7.02h-3.243V3.41Zm8.822 0H78v3.61h-2.027v2.179H78v4.785C78 16.59 79.558 18 82.011 18c1.067 0 1.856-.3 2.39-.64l-.683-2.009c-.32.192-.79.342-1.472.342-1.003 0-1.686-.64-1.686-1.73V9.199h3.243V7.02H80.56V3.41Zm8.119 3.61h-2.56v10.766h2.56V7.02ZM87.399 2c-.896 0-1.579.662-1.579 1.58 0 .92.683 1.582 1.579 1.582.917 0 1.6-.663 1.6-1.581C89 2.662 88.316 2 87.4 2Zm9.015 4.806c-3.307 0-5.505 2.35-5.505 5.597 0 3.226 2.22 5.597 5.526 5.597 1.942 0 3.414-.876 4.374-2.371l-1.835-1.431c-.512.854-1.344 1.559-2.517 1.559-1.9 0-2.945-1.474-2.945-3.354 0-1.901 1.003-3.354 2.923-3.354 1.195 0 1.984.684 2.475 1.539l1.856-1.41c-.96-1.496-2.39-2.372-4.352-2.372Zm10.657 0c3.307 0 4.929 2.478 4.929 5.49v.898h-7.595c.064 1.708 1.088 2.648 2.88 2.648 1.259 0 2.176-.555 2.667-1.239l1.771 1.453c-1.067 1.282-2.475 1.944-4.459 1.944-3.329 0-5.462-2.35-5.462-5.575 0-3.247 2.176-5.619 5.269-5.619Zm-.042 2.051c-1.515 0-2.539 1.004-2.624 2.5h5.077c-.064-1.474-.917-2.5-2.453-2.5Z" fill="#000"/></g><defs><clipPath id="svg1060057715_2506_a"><path fill="#fff" d="M0 0h112v20H0z"/></clipPath></defs></svg>