<svg xmlns="http://www.w3.org/2000/svg" xmlns:xlink="http://www.w3.org/1999/xlink" style="width: 100%; height: 100%" viewBox="0 0 34 30" preserveAspectRatio="none" width="34" height="30"><defs><svg width="34" height="30" viewBox="0 0 34 30" fill="none" xmlns="http://www.w3.org/2000/svg" id="svg-337574956_3698">
<g filter="url(#svg-337574956_3698_filter0_dd_2946_719)" fill="none">
<path fill-rule="evenodd" clip-rule="evenodd" d="M20.8216 1.62242L7.36871 24.9631C6.47516 26.5026 7.02122 28.6381 8.60976 29.532C10.1487 30.4259 12.2832 29.8796 13.1768 28.2904L19.8784 16.6697L26.6297 4.99938C27.5233 3.45988 26.9772 1.32446 25.3887 0.430555C23.8498 -0.463345 21.7152 0.0829274 20.8216 1.62242ZM7.36871 1.62242C8.26227 0.0829274 10.3969 -0.463345 11.9358 0.430555C13.4747 1.32446 14.0704 3.45988 13.1768 4.99938L6.42552 16.6697C5.53197 18.2092 3.39737 18.8052 1.85848 17.9113C0.31958 16.9677 -0.276121 14.8819 0.617431 13.2928L7.36871 1.62242ZM27.5729 13.2928C28.4665 11.7533 30.6011 11.1574 32.14 12.0513C33.6789 12.9452 34.2746 15.0806 33.381 16.6201L26.6297 28.3401C25.7362 29.8796 23.6016 30.4755 22.0627 29.5816C20.5238 28.6877 19.9281 26.5523 20.8216 25.0128L27.5729 13.2928Z" fill="url(&quot;#svg-337574956_3698_paint0_linear_2946_719&quot;)"></path>
<path d="M20.3892 1.37143L20.3884 1.37274L6.93628 24.7121C6.93619 24.7123 6.93611 24.7124 6.93603 24.7126C5.90616 26.4875 6.52789 28.9319 8.36159 29.966C10.1361 30.9945 12.5782 30.3718 13.6112 28.538L20.3112 16.9201L20.3116 16.9195L27.0622 5.25037C27.0622 5.25023 27.0623 5.25009 27.0624 5.24994C28.0923 3.47502 27.4705 1.03059 25.6368 -0.00351942C23.8639 -1.0311 21.4235 -0.410482 20.3892 1.37143ZM6.93628 1.37143L6.93592 1.37205L0.184634 13.0424L0.184601 13.0424L0.181602 13.0477C-0.849604 14.8817 -0.160489 17.2599 1.59712 18.3375L1.59705 18.3376L1.60733 18.3436C3.39179 19.3802 5.82968 18.6923 6.85796 16.9207L6.85832 16.9201L13.6092 5.25037L13.1768 4.99938L13.6096 5.24975L13.6094 5.2501C14.6451 3.4653 13.9578 1.02688 12.1869 -0.00179667C10.4137 -1.03179 7.97111 -0.411477 6.93628 1.37143ZM27.1405 13.0418L27.1397 13.0432L20.3892 24.7618C20.3891 24.762 20.389 24.7622 20.3888 24.7624C19.3534 26.5472 20.0407 28.9854 21.8115 30.014C23.596 31.0505 26.0339 30.3627 27.0622 28.5911L27.063 28.5897L33.8134 16.8711C33.8136 16.8709 33.8137 16.8706 33.8138 16.8704C34.8492 15.0857 34.1619 12.6475 32.3911 11.6189C30.6067 10.5824 28.1688 11.2702 27.1405 13.0418Z" stroke="url(&quot;#svg-337574956_3698_paint1_linear_2946_719&quot;)" stroke-opacity="0.04" fill="none"></path>
</g>
<defs>
<filter id="svg-337574956_3698_filter0_dd_2946_719" x="-4.80078" y="-5" width="43.6016" height="44" filterUnits="userSpaceOnUse" color-interpolation-filters="sRGB">
<feFlood flood-opacity="0" result="BackgroundImageFix"></feFlood>
<feColorMatrix in="SourceAlpha" type="matrix" values="0 0 0 0 0 0 0 0 0 0 0 0 0 0 0 0 0 0 127 0" result="hardAlpha"></feColorMatrix>
<feOffset dy="4"></feOffset>
<feGaussianBlur stdDeviation="2"></feGaussianBlur>
<feColorMatrix type="matrix" values="0 0 0 0 0.054902 0 0 0 0 0.054902 0 0 0 0 0.203922 0 0 0 0.08 0"></feColorMatrix>
<feBlend mode="normal" in2="BackgroundImageFix" result="effect1_dropShadow_2946_719"></feBlend>
<feColorMatrix in="SourceAlpha" type="matrix" values="0 0 0 0 0 0 0 0 0 0 0 0 0 0 0 0 0 0 127 0" result="hardAlpha"></feColorMatrix>
<feOffset></feOffset>
<feGaussianBlur stdDeviation="2"></feGaussianBlur>
<feColorMatrix type="matrix" values="0 0 0 0 0.0588235 0 0 0 0 0.0588235 0 0 0 0 0.0941176 0 0 0 0.12 0"></feColorMatrix>
<feBlend mode="normal" in2="effect1_dropShadow_2946_719" result="effect2_dropShadow_2946_719"></feBlend>
<feBlend mode="normal" in="SourceGraphic" in2="effect2_dropShadow_2946_719" result="shape"></feBlend>
</filter>
<linearGradient id="svg-337574956_3698_paint0_linear_2946_719" x1="16.9992" y1="12.5" x2="16.9992" y2="23" gradientUnits="userSpaceOnUse">
<stop stop-color="white"></stop>
<stop offset="1" stop-color="white" stop-opacity="0.8"></stop>
</linearGradient>
<linearGradient id="svg-337574956_3698_paint1_linear_2946_719" x1="16.9992" y1="0" x2="16.9992" y2="30" gradientUnits="userSpaceOnUse">
<stop stop-color="white"></stop>
<stop offset="1" stop-color="white" stop-opacity="0"></stop>
</linearGradient>
<linearGradient id="svg-337574956_3698_paint0_linear_2946_719" x1="16.9992" y1="12.5" x2="16.9992" y2="23" gradientUnits="userSpaceOnUse">
<stop stop-color="white"></stop>
<stop offset="1" stop-color="white" stop-opacity="0.8"></stop>
</linearGradient><linearGradient id="svg-337574956_3698_paint1_linear_2946_719" x1="16.9992" y1="0" x2="16.9992" y2="30" gradientUnits="userSpaceOnUse">
<stop stop-color="white"></stop>
<stop offset="1" stop-color="white" stop-opacity="0"></stop>
</linearGradient></defs>
</svg></defs><use href="#svg-337574956_3698"></use></svg>